<?xml version="1.0" encoding="utf-8"?>
<!-- Generator: Adobe Illustrator 17.0.0, SVG Export Plug-In . SVG Version: 6.00 Build 0)  -->
<!DOCTYPE svg PUBLIC "-//W3C//DTD SVG 1.1//EN" "http://www.w3.org/Graphics/SVG/1.1/DTD/svg11.dtd">
<svg version="1.1" id="图形" xmlns="http://www.w3.org/2000/svg" xmlns:xlink="http://www.w3.org/1999/xlink" x="0px" y="0px"
	 width="1000.636px" height="1000.678px" viewBox="15.167 -16.333 1000.636 1000.678"
	 enable-background="new 15.167 -16.333 1000.636 1000.678" xml:space="preserve">
<path d="M910.586,792.691c-47.515,80.133-134.644,129.906-227.38,129.906c-47.579,0-94.435-13.062-135.483-37.78
	C422.478,809.408,381.465,645.401,456.3,519.209c47.5-80.126,134.63-129.898,227.38-129.898c47.572,0,94.42,13.062,135.476,37.765
	c60.677,36.532,103.603,94.685,120.873,163.735C957.298,659.867,946.839,731.555,910.586,792.691z M910.787,598.237
	c-15.298-61.186-53.336-112.715-107.102-145.075c-36.374-21.893-77.875-33.471-120.005-33.471
	c-82.197,0-159.405,44.102-201.493,115.102c-66.304,111.812-29.973,257.13,81.007,323.936
	c36.374,21.908,77.875,33.485,120.013,33.485c82.19,0,159.391-44.11,201.493-115.109
	C916.823,722.946,926.092,659.416,910.787,598.237z M764.752,693.21c8.33,0,15.083,6.803,15.083,15.183
	c0,8.388-6.753,15.191-15.083,15.191H698.87v49.006c0,8.387-6.746,15.191-15.076,15.191c-8.323,0-15.076-6.803-15.076-15.191
	v-49.006h-65.881c-8.33,0-15.076-6.803-15.076-15.191c0-8.38,6.746-15.183,15.076-15.183h65.881v-37.034h-65.881
	c-8.33,0-15.076-6.803-15.076-15.191c0-8.38,6.746-15.183,15.076-15.183h42.848l-30.89-55.909c-4.05-7.326-1.441-16.574,5.843-20.66
	c7.291-4.072,16.46-1.441,20.503,5.886l39.056,70.684h9.893l39.048-70.684c4.057-7.327,13.234-9.965,20.51-5.886
	c7.276,4.086,9.886,13.334,5.835,20.66l-30.89,55.909h40.16c8.33,0,15.083,6.803,15.083,15.183c0,8.388-6.753,15.191-15.083,15.191
	H698.87v37.034H764.752z M897.869,350.047c-8.323,0-15.076-6.803-15.076-15.191V208.75c0-44.346-35.801-80.419-79.81-80.419H661.155
	c-8.323,0-15.076-6.803-15.076-15.191s6.753-15.191,15.076-15.191h141.827c60.641,0,109.962,49.708,109.962,110.801v126.106
	C912.945,343.244,906.199,350.047,897.869,350.047z M591.783,334.885c-8.323-0.237-14.882-7.226-14.646-15.614
	c2.416-85.517-41.328-165.879-114.149-209.709C409.237,77.181,346.18,67.854,285.453,83.282
	c-60.727,15.406-111.855,53.73-143.971,107.897C75.178,302.991,111.51,448.316,222.49,515.122
	c33.263,20.037,71.165,31.528,109.604,33.263c8.323,0.366,14.761,7.463,14.388,15.843c-0.358,8.144-7.033,14.517-15.047,14.517
	c-0.229,0-0.452,0-0.681-0.021c-43.414-1.943-86.198-14.911-123.733-37.514C81.774,465.801,40.761,301.794,115.603,175.594
	c36.238-61.128,93.947-104.378,162.481-121.776c68.548-17.391,139.698-6.875,200.375,29.65
	c82.176,49.479,131.54,140.164,128.823,236.67C607.038,328.526,600.128,335.293,591.783,334.885z M128.314,618.253
	c8.33,0,15.076,6.803,15.076,15.191v126.099c0,44.346,35.808,80.427,79.81,80.427h141.827c8.33,0,15.076,6.803,15.076,15.191
	s-6.746,15.191-15.076,15.191H223.2c-60.634,0-109.962-49.708-109.962-110.808V633.443
	C113.238,625.056,119.983,618.253,128.314,618.253z"/>
</svg>
