<?xml version="1.0" encoding="utf-8"?>
<!-- Generator: Adobe Illustrator 17.0.0, SVG Export Plug-In . SVG Version: 6.00 Build 0)  -->
<!DOCTYPE svg PUBLIC "-//W3C//DTD SVG 1.1//EN" "http://www.w3.org/Graphics/SVG/1.1/DTD/svg11.dtd">
<svg version="1.1" id="图形" xmlns="http://www.w3.org/2000/svg" xmlns:xlink="http://www.w3.org/1999/xlink" x="0px" y="0px"
	 width="1000.636px" height="1000.678px" viewBox="15.167 -16.333 1000.636 1000.678"
	 enable-background="new 15.167 -16.333 1000.636 1000.678" xml:space="preserve">
<path d="M758.767,709.428c-4.296,4.056-9.553,5.654-15.248,5.654c-10.36,0-22.19-5.286-32.404-10.677
	c-33.113-17.466-60.582-32.668-75.959-41.29c-5.701,14.47-10.969,27.704-15.412,38.82c11.268,6.058,24.309,16.243,24.309,33.13
	c0,16.149-9.863,30.367-25.199,36.466c-9.482,4.841-28.91,7.645-47.284,9.254c0.076,1.153,0.187,2.289,0.187,3.453
	c0,0.269-0.018,1.217-0.129,2.897c-0.041,0.966-0.105,2.236-0.258,3.5c-1.253,16.951-7.65,77.06-35.22,116.342
	c-1.381,2.107-9.799,13.896-22.799,14.388l-1.463,0.035l-1.03-0.035c-13.094-0.515-21.499-12.286-23.086-14.686
	c-26.457-37.696-33.294-93.59-34.997-115.862c-0.24-1.686-0.457-4.097-0.457-6.579c0-1.194,0.111-2.365,0.187-3.541
	c-16.413-1.481-33.873-3.928-43.684-7.984c-17.004-5.04-28.793-20.387-28.793-37.649c0-16.875,13.018-27.054,24.309-33.13
	c-4.46-11.156-9.746-24.438-15.47-38.966c-15.33,8.593-42.923,23.87-76.223,41.436c-10.208,5.391-22.038,10.677-32.398,10.677
	c-5.701,0-10.952-1.598-15.254-5.654c-11.578-10.928-4.454-29.975-2.318-34.909l63.579-180.343
	c-1.58-4.981-3.038-9.699-4.185-13.767C252.994,235.773,428.168,87.302,438.885,78.528c3.272-3.032,26.334-23.841,52.054-32.732
	c6.398-2.927,13.58-4.255,21.101-4.103c7.568-0.14,14.698,1.177,21.101,4.103c25.72,8.891,48.782,29.7,52.054,32.732
	c10.718,8.774,185.88,157.245,116.81,401.869c-1.182,4.191-2.693,9.073-4.337,14.23l63.415,179.892
	C763.221,679.453,770.35,698.5,758.767,709.428z M477.289,788.226c1.282,16.489,7.065,70.621,30.853,104.518
	c1.13,1.651,2.962,3.43,3.934,3.916h0.445c0.386-0.293,2.523-2.482,3.26-3.606c24.145-34.412,29.87-88.901,31.052-104.799
	c0.129-1.165,0.146-1.809,0.17-2.453l0.094-1.861c0-17.496-15.722-31.977-35.056-31.977c-19.334,0-35.062,14.481-35.062,32.276
	C476.979,785.592,477.114,786.915,477.289,788.226z M416.163,749.108l1.774,0.626c4.542,2.019,18.198,4.876,41.98,6.761
	c10.232-17.431,29.747-29.255,52.124-29.255c22.413,0,41.957,11.865,52.171,29.343c28.038-2.154,40.64-5.49,43.432-7.071
	l1.774-0.831c6.064-2.271,9.98-7.615,9.98-13.615c0-3.606-3.951-7.007-8.962-9.968l-0.462,1.141l-22.857-9.266l0.533-1.323
	c-19.386-5.344-50.403-9.594-74.373-9.799h-2.581c-29.197,0.252-69.082,6.544-85.231,13.469
	c-8.962,3.775-20.779,9.482-20.779,15.746C404.684,741.592,409.302,747.235,416.163,749.108z M285.381,684.171
	c-0.743,1.698-1.411,3.84-1.815,5.69c3.155-0.732,8.663-2.616,17.601-7.334c35.319-18.637,64.194-34.681,78.593-42.776
	c-13.832-35.43-28.886-74.835-40.663-107.843L285.381,684.171z M569.509,97.604l-0.855-0.732
	c-0.217-0.211-21.78-20.37-44.047-27.874l-1.393-0.562c-3.126-1.504-6.55-2.213-10.741-2.019l-0.433,0.018l-0.433-0.018
	c-4.027-0.199-7.609,0.515-10.741,2.019l-1.393,0.562c-22.395,7.551-43.83,27.657-44.041,27.868l-0.849,0.726
	c-1.317,1.036-8.078,6.497-17.777,16.103c24.976,12.749,84.014,34.447,150.133,0.029C576.674,103.364,569.849,97.873,569.509,97.604
	z M604.161,132.443c-32.387,18.233-63.497,24.66-90.932,24.66c-43.748,0-78.195-15.945-93.882-24.754
	c-47.682,54.799-121.241,172.417-73.553,341.322c13.357,47.313,61.226,168.525,81.385,218.94
	c21.693-6.38,55.824-11.25,83.411-11.484h3.003c27.482,0.234,61.578,5.098,83.305,11.49
	c20.147-50.374,68.028-171.633,81.385-218.946C725.49,306.464,651.527,187.67,604.161,132.443z M738.379,684.171l-0.386-0.966
	l-53.172-150.853c-11.765,32.966-26.767,72.237-40.552,107.544c14.487,8.142,43.227,24.116,78.324,42.63
	c8.944,4.718,14.446,6.597,17.601,7.334C739.766,687.911,739.064,685.693,738.379,684.171z M512.058,411.45
	c-52.429,0-95.082-42.776-95.082-95.351c0-52.569,42.654-95.34,95.082-95.34c52.417,0,95.065,42.771,95.065,95.34
	C607.123,368.674,564.475,411.45,512.058,411.45z M512.058,245.489c-38.837,0-70.428,31.678-70.428,70.609
	c0,38.948,31.591,70.627,70.428,70.627c38.82,0,70.41-31.678,70.41-70.627C582.469,277.168,550.878,245.489,512.058,245.489z
	 M562.503,320.372c-2.271,0-4.115-1.844-4.115-4.121c0-19.574-13.861-36.619-32.949-40.523c-2.224-0.462-3.664-2.634-3.214-4.864
	c0.457-2.236,2.657-3.676,4.847-3.219c22.91,4.694,39.539,25.14,39.539,48.606C566.612,318.528,564.774,320.372,562.503,320.372z
	 M543.327,348.228c5.883-4.852,10.302-11.215,12.796-18.409c0.743-2.148,3.079-3.266,5.233-2.54
	c2.142,0.749,3.272,3.096,2.534,5.245c-2.985,8.622-8.294,16.255-15.348,22.067c-0.761,0.632-1.686,0.937-2.605,0.937
	c-1.188,0-2.365-0.515-3.173-1.504C541.319,352.267,541.571,349.668,543.327,348.228z"/>
</svg>
