<?xml version="1.0" encoding="utf-8"?>
<!-- Generator: Adobe Illustrator 17.0.0, SVG Export Plug-In . SVG Version: 6.00 Build 0)  -->
<!DOCTYPE svg PUBLIC "-//W3C//DTD SVG 1.1//EN" "http://www.w3.org/Graphics/SVG/1.1/DTD/svg11.dtd">
<svg version="1.1" id="图形" xmlns="http://www.w3.org/2000/svg" xmlns:xlink="http://www.w3.org/1999/xlink" x="0px" y="0px"
	 width="1000.636px" height="1000.678px" viewBox="15.167 -16.333 1000.636 1000.678"
	 enable-background="new 15.167 -16.333 1000.636 1000.678" xml:space="preserve">
<path d="M719.235,917.961H304.715c-64.895,0-117.684-53.204-117.684-118.616V240.643c0-64.587,51.488-117.181,115.257-118.502
	V89.516c0-26.089,21.819-47.326,48.633-47.326c26.82,0,48.646,21.236,48.646,47.326v32.498H624.39V89.516
	c0-26.089,21.826-47.326,48.639-47.326c26.82,0,48.646,21.236,48.646,47.326v32.625c63.769,1.327,115.257,53.922,115.257,118.502
	v558.703C836.932,864.757,784.137,917.961,719.235,917.961z M371.46,89.516c0-10.471-9.217-18.991-20.539-18.991
	c-11.315,0-20.519,8.52-20.519,18.991v74.642c0,10.471,9.204,18.991,20.519,18.991c11.322,0,20.539-8.52,20.539-18.991V89.516z
	 M693.568,89.516c0-10.471-9.217-18.991-20.539-18.991c-11.315,0-20.532,8.52-20.532,18.991v74.642
	c0,10.471,9.217,18.991,20.532,18.991c11.322,0,20.539-8.52,20.539-18.991V89.516z M808.825,240.643
	c0-48.954-38.886-88.846-87.15-90.167v13.682c0,26.089-21.826,47.326-48.646,47.326c-26.813,0-48.639-21.236-48.639-47.326v-13.809
	H399.567v13.809c0,26.089-21.826,47.326-48.646,47.326c-26.813,0-48.633-21.236-48.633-47.326v-13.682
	c-48.264,1.307-87.143,41.205-87.143,90.167v558.703c0,49.786,40.18,90.281,89.57,90.281h414.521
	c49.397,0,89.59-40.495,89.59-90.281V240.643z M689.586,673.718H334.37c-2.587,0-4.686-2.112-4.686-4.719
	c0-2.614,2.098-4.726,4.686-4.726h355.216c2.588,0,4.686,2.112,4.686,4.726C694.272,671.607,692.174,673.718,689.586,673.718z
	 M689.586,530.368H334.37c-2.587,0-4.686-2.112-4.686-4.726c0-2.608,2.098-4.719,4.686-4.719h355.216
	c2.588,0,4.686,2.112,4.686,4.719C694.272,528.256,692.174,530.368,689.586,530.368z M689.586,389.202H334.37
	c-2.587,0-4.686-2.112-4.686-4.726c0-2.608,2.098-4.719,4.686-4.719h355.216c2.588,0,4.686,2.112,4.686,4.719
	C694.272,387.091,692.174,389.202,689.586,389.202z"/>
</svg>
