<?xml version="1.0" encoding="utf-8"?>
<!-- Generator: Adobe Illustrator 17.0.0, SVG Export Plug-In . SVG Version: 6.00 Build 0)  -->
<!DOCTYPE svg PUBLIC "-//W3C//DTD SVG 1.1//EN" "http://www.w3.org/Graphics/SVG/1.1/DTD/svg11.dtd">
<svg version="1.1" id="图形" xmlns="http://www.w3.org/2000/svg" xmlns:xlink="http://www.w3.org/1999/xlink" x="0px" y="0px"
	 width="1000.636px" height="1000.678px" viewBox="15.167 -16.333 1000.636 1000.678"
	 enable-background="new 15.167 -16.333 1000.636 1000.678" xml:space="preserve">
<path d="M950.891,498.709c-8.152,227.574-192.298,405.862-419.195,405.862c-0.014,0,0.007,0-0.007,0l-4.132-0.035
	c-0.5,0.042-0.986,0.035-1.499,0.063c-0.028,0-0.063,0-0.092,0c-0.303,0-0.591-0.007-0.894-0.028c-0.042,0-0.753-0.049-0.802-0.049
	l-2.858-0.042c-1.668,0-3.337-0.007-5.026-0.063l-4.808-0.134c-3.562-0.077-7.103-0.176-10.623-0.429
	c-0.479-0.035-0.964-0.099-1.436-0.176C169.234,880.862,75.014,661.377,71.163,652.028c-2.175-5.266-1.147-11.32,2.654-15.572
	c3.787-4.245,9.687-5.934,15.128-4.322c19.197,5.632,34.234,8.497,44.702,8.497c4.28,0,6.765-0.5,8.075-0.901
	c-0.324-0.556-0.612-1.126-0.838-1.682c-0.38-0.957-0.732-1.943-1.077-2.929l-0.535-1.478c-0.084-0.204-0.155-0.408-0.225-0.612
	c-19.944-52.735-29.025-108.109-26.997-164.589c8.321-232.903,201.083-414.394,434.486-405.982
	C777.791,70.806,959.184,266.511,950.891,498.709z M545.48,92.087C328.452,84.259,149.304,252.98,141.561,469.509
	c-1.887,52.538,6.568,104.047,25.132,153.093c0.056,0.148,0.106,0.296,0.162,0.443l0.781,2.147c0.549,0.866,1.007,1.753,1.323,2.64
	c3.935,10.883,3.098,21.183-2.365,29.004c-8.56,12.27-25.632,16.1-52.819,11.623c36.846,58.268,145.913,189.235,388.699,205.701
	c0.507,0.035,1.014,0.099,1.521,0.183c2.738,0.176,5.491,0.232,8.265,0.296l5.195,0.148c1.345,0.042,2.654,0.042,3.97,0.042
	l3.119,0.021c0.12,0,0.437,0.014,0.781,0.035c0.176-0.007,0.352-0.007,0.535-0.007c0.063,0,0.134,0,0.204,0l5.625,0.042
	c210.939,0,382.11-165.716,389.692-377.267C929.089,281.78,760.459,99.845,545.48,92.087z M772.863,638.469
	c-0.922,0-1.866-0.268-2.696-0.817c-2.274-1.499-2.9-4.569-1.408-6.843c29.454-44.907,45.026-97.191,45.026-151.193
	c0-112.312-66.899-212.354-170.425-254.874c-8.779-3.611-17.874-6.793-27.026-9.468c-10.222-2.985-20.753-5.399-31.271-7.159
	c-21.64-3.625-43.963-4.653-66.195-2.985c-2.809,0.19-5.069-1.844-5.273-4.562c-0.204-2.724,1.83-5.09,4.541-5.294
	c22.992-1.739,46.131-0.662,68.539,3.097c10.904,1.823,21.809,4.315,32.411,7.413c9.483,2.774,18.902,6.075,28.004,9.806
	c107.236,44.048,176.536,147.68,176.536,264.025c0,55.945-16.128,110.102-46.645,156.62
	C776.031,637.681,774.468,638.469,772.863,638.469z"/>
</svg>
