<?xml version="1.0" encoding="utf-8"?>
<!-- Generator: Adobe Illustrator 17.0.0, SVG Export Plug-In . SVG Version: 6.00 Build 0)  -->
<!DOCTYPE svg PUBLIC "-//W3C//DTD SVG 1.1//EN" "http://www.w3.org/Graphics/SVG/1.1/DTD/svg11.dtd">
<svg version="1.1" id="图形" xmlns="http://www.w3.org/2000/svg" xmlns:xlink="http://www.w3.org/1999/xlink" x="0px" y="0px"
	 width="1000.636px" height="1000.678px" viewBox="15.167 -16.333 1000.636 1000.678"
	 enable-background="new 15.167 -16.333 1000.636 1000.678" xml:space="preserve">
<path d="M810.366,734.081C746.677,827.7,624.255,884.797,532.774,916.219c-5.919,2.021-11.865,3.856-17.88,5.513
	c-1.265,0.351-2.578,0.529-3.884,0.529c-1.313,0-2.633-0.179-3.911-0.543c-5.974-1.65-11.94-3.478-17.832-5.499
	c-91.495-31.422-213.924-88.533-277.593-182.138c-77.273-113.609-75.63-265.336-74.186-399.218
	c0.309-28.232,0.591-54.89,0.199-80.998c-0.103-7.094,4.991-13.219,12.016-14.45c2.365-0.419,237.888-43.225,349.758-188.861
	c5.499-7.17,17.598-7.156,23.097-0.007c111.877,145.643,347.4,188.449,349.765,188.868c7.025,1.23,12.119,7.355,12.016,14.45
	c-0.392,26.101-0.103,52.766,0.199,80.998C885.982,468.738,887.618,620.471,810.366,734.081z M855.475,335.172
	c-0.261-24.115-0.509-47.095-0.337-69.67c-49.783-10.504-236.623-57.104-344.128-183.135
	C403.512,208.399,216.672,254.999,166.889,265.503c0.172,22.582-0.076,45.562-0.337,69.67
	c-1.395,129.647-2.983,276.575,69.195,382.699c59.187,87.027,175.69,141.03,263.006,171.016c4.056,1.395,8.153,2.681,12.264,3.891
	c4.124-1.21,8.208-2.495,12.277-3.891c87.302-29.985,203.799-83.989,262.992-171.016
	C858.458,611.748,856.877,464.819,855.475,335.172z M524.621,796.966c-4.063,1.389-8.16,2.646-12.298,3.801
	c-0.426,0.124-0.873,0.179-1.313,0.179s-0.88-0.055-1.313-0.179c-4.111-1.155-8.215-2.413-12.277-3.801
	c-63.847-21.929-149.231-61.682-193.377-126.595c-34.763-51.123-43.135-112.283-47.006-170.761c-0.179-2.66,1.842-4.949,4.516-5.128
	c2.695-0.124,4.977,1.842,5.156,4.489c3.781,57.131,11.885,116.792,45.356,165.998c42.654,62.713,126.065,101.442,188.517,122.89
	c3.451,1.182,6.943,2.255,10.435,3.258c3.513-1.004,6.991-2.076,10.442-3.258c62.452-21.447,145.856-60.176,188.517-122.89
	c33.649-49.48,41.719-109.588,45.431-167.18c0.172-2.653,2.372-4.736,5.149-4.503c2.667,0.172,4.688,2.468,4.523,5.121
	c-3.801,58.939-12.133,120.573-47.074,171.964C673.839,735.284,588.468,775.037,524.621,796.966z"/>
</svg>
